TITLE ""
FILE "LR_black_phrase_B08.mp3" MP3
  TRACK 01 AUDIO
    TITLE "LR_black_phrase_B08_001"
    INDEX 01 00:00:00
  TRACK 02 AUDIO
    TITLE "LR_black_phrase_B08_002"
    INDEX 01 00:00:14
  TRACK 03 AUDIO
    TITLE "LR_black_phrase_B08_003"
    INDEX 01 00:01:31
  TRACK 04 AUDIO
    TITLE "LR_black_phrase_B08_004"
    INDEX 01 00:01:70
  TRACK 05 AUDIO
    TITLE "LR_black_phrase_B08_005"
    INDEX 01 00:03:62
  TRACK 06 AUDIO
    TITLE "LR_black_phrase_B08_006"
    INDEX 01 00:04:59
  TRACK 07 AUDIO
    TITLE "LR_black_phrase_B08_007"
    INDEX 01 00:06:44
  TRACK 08 AUDIO
    TITLE "LR_black_phrase_B08_008"
    INDEX 01 00:07:08
  TRACK 09 AUDIO
    TITLE "LR_black_phrase_B08_009"
    INDEX 01 00:09:05
  TRACK 10 AUDIO
    TITLE "LR_black_phrase_B08_010"
    INDEX 01 00:09:35
  TRACK 11 AUDIO
    TITLE "LR_black_phrase_B08_011"
    INDEX 01 00:11:34
  TRACK 12 AUDIO
    TITLE "LR_black_phrase_B08_012"
    INDEX 01 00:12:37
  TRACK 13 AUDIO
    TITLE "LR_black_phrase_B08_013"
    INDEX 01 00:13:48
  TRACK 14 AUDIO
    TITLE "LR_black_phrase_B08_014"
    INDEX 01 00:14:10
  TRACK 15 AUDIO
    TITLE "LR_black_phrase_B08_015"
    INDEX 01 00:16:52
  TRACK 16 AUDIO
    TITLE "LR_black_phrase_B08_016"
    INDEX 01 00:17:50
  TRACK 17 AUDIO
    TITLE "LR_black_phrase_B08_017"
    INDEX 01 00:20:15
  TRACK 18 AUDIO
    TITLE "LR_black_phrase_B08_018"
    INDEX 01 00:20:54
  TRACK 19 AUDIO
    TITLE "LR_black_phrase_B08_019"
    INDEX 01 00:23:07
  TRACK 20 AUDIO
    TITLE "LR_black_phrase_B08_020"
    INDEX 01 00:23:37
  TRACK 21 AUDIO
    TITLE "LR_black_phrase_B08_021"
    INDEX 01 00:25:65
  TRACK 22 AUDIO
    TITLE "LR_black_phrase_B08_022"
    INDEX 01 00:26:70
  TRACK 23 AUDIO
    TITLE "LR_black_phrase_B08_023"
    INDEX 01 00:28:14
  TRACK 24 AUDIO
    TITLE "LR_black_phrase_B08_024"
    INDEX 01 00:28:58
  TRACK 25 AUDIO
    TITLE "LR_black_phrase_B08_025"
    INDEX 01 00:31:36
  TRACK 26 AUDIO
    TITLE "LR_black_phrase_B08_026"
    INDEX 01 00:32:36
  TRACK 27 AUDIO
    TITLE "LR_black_phrase_B08_027"
    INDEX 01 00:34:50
  TRACK 28 AUDIO
    TITLE "LR_black_phrase_B08_028"
    INDEX 01 00:35:13
  TRACK 29 AUDIO
    TITLE "LR_black_phrase_B08_029"
    INDEX 01 00:37:43
  TRACK 30 AUDIO
    TITLE "LR_black_phrase_B08_030"
    INDEX 01 00:37:72
  TRACK 31 AUDIO
    TITLE "LR_black_phrase_B08_031"
    INDEX 01 00:40:29
  TRACK 32 AUDIO
    TITLE "LR_black_phrase_B08_032"
    INDEX 01 00:41:25
  TRACK 33 AUDIO
    TITLE "LR_black_phrase_B08_033"
    INDEX 01 00:42:44
  TRACK 34 AUDIO
    TITLE "LR_black_phrase_B08_034"
    INDEX 01 00:43:04
  TRACK 35 AUDIO
    TITLE "LR_black_phrase_B08_035"
    INDEX 01 00:46:63
  TRACK 36 AUDIO
    TITLE "LR_black_phrase_B08_036"
    INDEX 01 00:47:65
  TRACK 37 AUDIO
    TITLE "LR_black_phrase_B08_037"
    INDEX 01 00:50:67
  TRACK 38 AUDIO
    TITLE "LR_black_phrase_B08_038"
    INDEX 01 00:51:27
  TRACK 39 AUDIO
    TITLE "LR_black_phrase_B08_039"
    INDEX 01 00:53:63
  TRACK 40 AUDIO
    TITLE "LR_black_phrase_B08_040"
    INDEX 01 00:54:10
  TRACK 41 AUDIO
    TITLE "LR_black_phrase_B08_041"
    INDEX 01 00:56:46
  TRACK 42 AUDIO
    TITLE "LR_black_phrase_B08_042"
    INDEX 01 00:57:42
  TRACK 43 AUDIO
    TITLE "LR_black_phrase_B08_043"
    INDEX 01 00:58:57
  TRACK 44 AUDIO
    TITLE "LR_black_phrase_B08_044"
    INDEX 01 00:59:17
  TRACK 45 AUDIO
    TITLE "LR_black_phrase_B08_045"
    INDEX 01 01:00:42
  TRACK 46 AUDIO
    TITLE "LR_black_phrase_B08_046"
    INDEX 01 01:01:45
  TRACK 47 AUDIO
    TITLE "LR_black_phrase_B08_047"
    INDEX 01 01:03:03
  TRACK 48 AUDIO
    TITLE "LR_black_phrase_B08_048"
    INDEX 01 01:03:38
  TRACK 49 AUDIO
    TITLE "LR_black_phrase_B08_049"
    INDEX 01 01:05:10
  TRACK 50 AUDIO
    TITLE "LR_black_phrase_B08_050"
    INDEX 01 01:05:31
  TRACK 51 AUDIO
    TITLE "LR_black_phrase_B08_051"
    INDEX 01 01:07:03
  TRACK 52 AUDIO
    TITLE "LR_black_phrase_B08_052"
    INDEX 01 01:07:71
  TRACK 53 AUDIO
    TITLE "LR_black_phrase_B08_053"
    INDEX 01 01:08:69
  TRACK 54 AUDIO
    TITLE "LR_black_phrase_B08_054"
    INDEX 01 01:09:29
  TRACK 55 AUDIO
    TITLE "LR_black_phrase_B08_055"
    INDEX 01 01:11:40
  TRACK 56 AUDIO
    TITLE "LR_black_phrase_B08_056"
    INDEX 01 01:12:37
  TRACK 57 AUDIO
    TITLE "LR_black_phrase_B08_057"
    INDEX 01 01:14:67
  TRACK 58 AUDIO
    TITLE "LR_black_phrase_B08_058"
    INDEX 01 01:15:32
  TRACK 59 AUDIO
    TITLE "LR_black_phrase_B08_059"
    INDEX 01 01:17:38
  TRACK 60 AUDIO
    TITLE "LR_black_phrase_B08_060"
    INDEX 01 01:17:64
  TRACK 61 AUDIO
    TITLE "LR_black_phrase_B08_061"
    INDEX 01 01:19:71
  TRACK 62 AUDIO
    TITLE "LR_black_phrase_B08_062"
    INDEX 01 01:20:72
  TRACK 63 AUDIO
    TITLE "LR_black_phrase_B08_063"
    INDEX 01 01:22:12
  TRACK 64 AUDIO
    TITLE "LR_black_phrase_B08_064"
    INDEX 01 01:22:47
  TRACK 65 AUDIO
    TITLE "LR_black_phrase_B08_065"
    INDEX 01 01:25:22
  TRACK 66 AUDIO
    TITLE "LR_black_phrase_B08_066"
    INDEX 01 01:26:22
  TRACK 67 AUDIO
    TITLE "LR_black_phrase_B08_067"
    INDEX 01 01:28:58
  TRACK 68 AUDIO
    TITLE "LR_black_phrase_B08_068"
    INDEX 01 01:29:24
  TRACK 69 AUDIO
    TITLE "LR_black_phrase_B08_069"
    INDEX 01 01:31:37
  TRACK 70 AUDIO
    TITLE "LR_black_phrase_B08_070"
    INDEX 01 01:31:68
  TRACK 71 AUDIO
    TITLE "LR_black_phrase_B08_071"
    INDEX 01 01:34:04
  TRACK 72 AUDIO
    TITLE "LR_black_phrase_B08_072"
    INDEX 01 01:35:09
  TRACK 73 AUDIO
    TITLE "LR_black_phrase_B08_073"
    INDEX 01 01:36:38
  TRACK 74 AUDIO
    TITLE "LR_black_phrase_B08_074"
    INDEX 01 01:37:04
  TRACK 75 AUDIO
    TITLE "LR_black_phrase_B08_075"
    INDEX 01 01:39:48
  TRACK 76 AUDIO
    TITLE "LR_black_phrase_B08_076"
    INDEX 01 01:40:47
  TRACK 77 AUDIO
    TITLE "LR_black_phrase_B08_077"
    INDEX 01 01:42:60
  TRACK 78 AUDIO
    TITLE "LR_black_phrase_B08_078"
    INDEX 01 01:43:24
  TRACK 79 AUDIO
    TITLE "LR_black_phrase_B08_079"
    INDEX 01 01:45:66
  TRACK 80 AUDIO
    TITLE "LR_black_phrase_B08_080"
    INDEX 01 01:46:22
  TRACK 81 AUDIO
    TITLE "LR_black_phrase_B08_081"
    INDEX 01 01:48:64
  TRACK 82 AUDIO
    TITLE "LR_black_phrase_B08_082"
    INDEX 01 01:49:70
  TRACK 83 AUDIO
    TITLE "LR_black_phrase_B08_083"
    INDEX 01 01:51:18
  TRACK 84 AUDIO
    TITLE "LR_black_phrase_B08_084"
    INDEX 01 01:51:67
  TRACK 85 AUDIO
    TITLE "LR_black_phrase_B08_085"
    INDEX 01 01:53:75
  TRACK 86 AUDIO
    TITLE "LR_black_phrase_B08_086"
    INDEX 01 01:54:75
  TRACK 87 AUDIO
    TITLE "LR_black_phrase_B08_087"
    INDEX 01 01:57:24
  TRACK 88 AUDIO
    TITLE "LR_black_phrase_B08_088"
    INDEX 01 01:57:65
  TRACK 89 AUDIO
    TITLE "LR_black_phrase_B08_089"
    INDEX 01 02:00:42
  TRACK 90 AUDIO
    TITLE "LR_black_phrase_B08_090"
    INDEX 01 02:00:72
  TRACK 91 AUDIO
    TITLE "LR_black_phrase_B08_091"
    INDEX 01 02:03:50
  TRACK 92 AUDIO
    TITLE "LR_black_phrase_B08_092"
    INDEX 01 02:04:50
  TRACK 93 AUDIO
    TITLE "LR_black_phrase_B08_093"
    INDEX 01 02:05:59
  TRACK 94 AUDIO
    TITLE "LR_black_phrase_B08_094"
    INDEX 01 02:06:19
  TRACK 95 AUDIO
    TITLE "LR_black_phrase_B08_095"
    INDEX 01 02:09:39
  TRACK 96 AUDIO
    TITLE "LR_black_phrase_B08_096"
    INDEX 01 02:10:37
  TRACK 97 AUDIO
    TITLE "LR_black_phrase_B08_097"
    INDEX 01 02:12:32
  TRACK 98 AUDIO
    TITLE "LR_black_phrase_B08_098"
    INDEX 01 02:12:63
  TRACK 99 AUDIO
    TITLE "LR_black_phrase_B08_099"
    INDEX 01 02:14:58
  TRACK 100 AUDIO
    TITLE "LR_black_phrase_B08_100"
    INDEX 01 02:15:03
  TRACK 101 AUDIO
    TITLE "LR_black_phrase_B08_101"
    INDEX 01 02:16:73
  TRACK 102 AUDIO
    TITLE "LR_black_phrase_B08_102"
    INDEX 01 02:17:66
  TRACK 103 AUDIO
    TITLE "LR_black_phrase_B08_103"
    INDEX 01 02:18:75
  TRACK 104 AUDIO
    TITLE "LR_black_phrase_B08_104"
    INDEX 01 02:19:40
  TRACK 105 AUDIO
    TITLE "LR_black_phrase_B08_105"
    INDEX 01 02:21:07
  TRACK 106 AUDIO
    TITLE "LR_black_phrase_B08_106"
    INDEX 01 02:22:07
  TRACK 107 AUDIO
    TITLE "LR_black_phrase_B08_107"
    INDEX 01 02:24:13
  TRACK 108 AUDIO
    TITLE "LR_black_phrase_B08_108"
    INDEX 01 02:24:52
  TRACK 109 AUDIO
    TITLE "LR_black_phrase_B08_109"
    INDEX 01 02:26:26
  TRACK 110 AUDIO
    TITLE "LR_black_phrase_B08_110"
    INDEX 01 02:26:47
  TRACK 111 AUDIO
    TITLE "LR_black_phrase_B08_111"
    INDEX 01 02:28:19
  TRACK 112 AUDIO
    TITLE "LR_black_phrase_B08_112"
    INDEX 01 02:29:20
  TRACK 113 AUDIO
    TITLE "LR_black_phrase_B08_113"
    INDEX 01 02:30:31
  TRACK 114 AUDIO
    TITLE "LR_black_phrase_B08_114"
    INDEX 01 02:30:67
  TRACK 115 AUDIO
    TITLE "LR_black_phrase_B08_115"
    INDEX 01 02:33:16
  TRACK 116 AUDIO
    TITLE "LR_black_phrase_B08_116"
    INDEX 01 02:34:16
  TRACK 117 AUDIO
    TITLE "LR_black_phrase_B08_117"
    INDEX 01 02:36:14
  TRACK 118 AUDIO
    TITLE "LR_black_phrase_B08_118"
    INDEX 01 02:36:48
  TRACK 119 AUDIO
    TITLE "LR_black_phrase_B08_119"
    INDEX 01 02:38:72
  TRACK 120 AUDIO
    TITLE "LR_black_phrase_B08_120"
    INDEX 01 02:39:17
  TRACK 121 AUDIO
    TITLE "LR_black_phrase_B08_121"
    INDEX 01 02:41:43
  TRACK 122 AUDIO
    TITLE "LR_black_phrase_B08_122"
    INDEX 01 02:42:43
  TRACK 123 AUDIO
    TITLE "LR_black_phrase_B08_123"
    INDEX 01 02:43:56
  TRACK 124 AUDIO
    TITLE "LR_black_phrase_B08_124"
    INDEX 01 02:44:20
  TRACK 125 AUDIO
    TITLE "LR_black_phrase_B08_125"
    INDEX 01 02:47:10
  TRACK 126 AUDIO
    TITLE "LR_black_phrase_B08_126"
    INDEX 01 02:48:10
  TRACK 127 AUDIO
    TITLE "LR_black_phrase_B08_127"
    INDEX 01 02:51:04
  TRACK 128 AUDIO
    TITLE "LR_black_phrase_B08_128"
    INDEX 01 02:51:41
  TRACK 129 AUDIO
    TITLE "LR_black_phrase_B08_129"
    INDEX 01 02:54:08
  TRACK 130 AUDIO
    TITLE "LR_black_phrase_B08_130"
    INDEX 01 02:54:38
  TRACK 131 AUDIO
    TITLE "LR_black_phrase_B08_131"
    INDEX 01 02:57:03
  TRACK 132 AUDIO
    TITLE "LR_black_phrase_B08_132"
    INDEX 01 02:58:08
  TRACK 133 AUDIO
    TITLE "LR_black_phrase_B08_133"
    INDEX 01 02:59:27
  TRACK 134 AUDIO
    TITLE "LR_black_phrase_B08_134"
    INDEX 01 02:59:68
  TRACK 135 AUDIO
    TITLE "LR_black_phrase_B08_135"
    INDEX 01 03:02:20
  TRACK 136 AUDIO
    TITLE "LR_black_phrase_B08_136"
    INDEX 01 03:03:21
  TRACK 137 AUDIO
    TITLE "LR_black_phrase_B08_137"
    INDEX 01 03:04:73
  TRACK 138 AUDIO
    TITLE "LR_black_phrase_B08_138"
    INDEX 01 03:05:38
  TRACK 139 AUDIO
    TITLE "LR_black_phrase_B08_139"
    INDEX 01 03:07:27
  TRACK 140 AUDIO
    TITLE "LR_black_phrase_B08_140"
    INDEX 01 03:07:56
  TRACK 141 AUDIO
    TITLE "LR_black_phrase_B08_141"
    INDEX 01 03:09:43
  TRACK 142 AUDIO
    TITLE "LR_black_phrase_B08_142"
    INDEX 01 03:10:47
  TRACK 143 AUDIO
    TITLE "LR_black_phrase_B08_143"
    INDEX 01 03:12:01
  TRACK 144 AUDIO
    TITLE "LR_black_phrase_B08_144"
    INDEX 01 03:12:40
  TRACK 145 AUDIO
    TITLE "LR_black_phrase_B08_145"
    INDEX 01 03:13:55
  TRACK 146 AUDIO
    TITLE "LR_black_phrase_B08_146"
    INDEX 01 03:14:54
  TRACK 147 AUDIO
    TITLE "LR_black_phrase_B08_147"
    INDEX 01 03:16:18
  TRACK 148 AUDIO
    TITLE "LR_black_phrase_B08_148"
    INDEX 01 03:16:57
  TRACK 149 AUDIO
    TITLE "LR_black_phrase_B08_149"
    INDEX 01 03:18:46
  TRACK 150 AUDIO
    TITLE "LR_black_phrase_B08_150"
    INDEX 01 03:19:01
  TRACK 151 AUDIO
    TITLE "LR_black_phrase_B08_151"
    INDEX 01 03:20:63
  TRACK 152 AUDIO
    TITLE "LR_black_phrase_B08_152"
    INDEX 01 03:21:68
  TRACK 153 AUDIO
    TITLE "LR_black_phrase_B08_153"
    INDEX 01 03:23:28
  TRACK 154 AUDIO
    TITLE "LR_black_phrase_B08_154"
    INDEX 01 03:23:61
  TRACK 155 AUDIO
    TITLE "LR_black_phrase_B08_155"
    INDEX 01 03:26:44
  TRACK 156 AUDIO
    TITLE "LR_black_phrase_B08_156"
    INDEX 01 03:27:39
  TRACK 157 AUDIO
    TITLE "LR_black_phrase_B08_157"
    INDEX 01 03:29:66
  TRACK 158 AUDIO
    TITLE "LR_black_phrase_B08_158"
    INDEX 01 03:30:30
  TRACK 159 AUDIO
    TITLE "LR_black_phrase_B08_159"
    INDEX 01 03:32:54
  TRACK 160 AUDIO
    TITLE "LR_black_phrase_B08_160"
    INDEX 01 03:33:10
  TRACK 161 AUDIO
    TITLE "LR_black_phrase_B08_161"
    INDEX 01 03:35:31
  TRACK 162 AUDIO
    TITLE "LR_black_phrase_B08_162"
    INDEX 01 03:36:30
  TRACK 163 AUDIO
    TITLE "LR_black_phrase_B08_163"
    INDEX 01 03:37:45
  TRACK 164 AUDIO
    TITLE "LR_black_phrase_B08_164"
    INDEX 01 03:38:08
  TRACK 165 AUDIO
    TITLE "LR_black_phrase_B08_165"
    INDEX 01 03:40:50
  TRACK 166 AUDIO
    TITLE "LR_black_phrase_B08_166"
    INDEX 01 03:41:47
  TRACK 167 AUDIO
    TITLE "LR_black_phrase_B08_167"
    INDEX 01 03:43:40
  TRACK 168 AUDIO
    TITLE "LR_black_phrase_B08_168"
    INDEX 01 03:44:04
  TRACK 169 AUDIO
    TITLE "LR_black_phrase_B08_169"
    INDEX 01 03:46:05
  TRACK 170 AUDIO
    TITLE "LR_black_phrase_B08_170"
    INDEX 01 03:46:31
  TRACK 171 AUDIO
    TITLE "LR_black_phrase_B08_171"
    INDEX 01 03:48:30
  TRACK 172 AUDIO
    TITLE "LR_black_phrase_B08_172"
    INDEX 01 03:49:25
  TRACK 173 AUDIO
    TITLE "LR_black_phrase_B08_173"
    INDEX 01 03:50:38
  TRACK 174 AUDIO
    TITLE "LR_black_phrase_B08_174"
    INDEX 01 03:51:04
  TRACK 175 AUDIO
    TITLE "LR_black_phrase_B08_175"
    INDEX 01 03:52:55
  TRACK 176 AUDIO
    TITLE "LR_black_phrase_B08_176"
    INDEX 01 03:53:54
  TRACK 177 AUDIO
    TITLE "LR_black_phrase_B08_177"
    INDEX 01 03:55:73
  TRACK 178 AUDIO
    TITLE "LR_black_phrase_B08_178"
    INDEX 01 03:56:29
  TRACK 179 AUDIO
    TITLE "LR_black_phrase_B08_179"
    INDEX 01 03:58:01
  TRACK 180 AUDIO
    TITLE "LR_black_phrase_B08_180"
    INDEX 01 03:58:22
  TRACK 181 AUDIO
    TITLE "LR_black_phrase_B08_181"
    INDEX 01 03:59:69
  TRACK 182 AUDIO
    TITLE "LR_black_phrase_B08_182"
    INDEX 01 04:00:70
  TRACK 183 AUDIO
    TITLE "LR_black_phrase_B08_183"
    INDEX 01 04:02:08
  TRACK 184 AUDIO
    TITLE "LR_black_phrase_B08_184"
    INDEX 01 04:02:47
  TRACK 185 AUDIO
    TITLE "LR_black_phrase_B08_185"
    INDEX 01 04:04:17
  TRACK 186 AUDIO
    TITLE "LR_black_phrase_B08_186"
    INDEX 01 04:05:16
  TRACK 187 AUDIO
    TITLE "LR_black_phrase_B08_187"
    INDEX 01 04:08:40
  TRACK 188 AUDIO
    TITLE "LR_black_phrase_B08_188"
    INDEX 01 04:09:04
  TRACK 189 AUDIO
    TITLE "LR_black_phrase_B08_189"
    INDEX 01 04:11:72
  TRACK 190 AUDIO
    TITLE "LR_black_phrase_B08_190"
    INDEX 01 04:12:26
  TRACK 191 AUDIO
    TITLE "LR_black_phrase_B08_191"
    INDEX 01 04:15:21
  TRACK 192 AUDIO
    TITLE "LR_black_phrase_B08_192"
    INDEX 01 04:16:24
  TRACK 193 AUDIO
    TITLE "LR_black_phrase_B08_193"
    INDEX 01 04:17:45
  TRACK 194 AUDIO
    TITLE "LR_black_phrase_B08_194"
    INDEX 01 04:18:09
  TRACK 195 AUDIO
    TITLE "LR_black_phrase_B08_195"
    INDEX 01 04:20:57
  TRACK 196 AUDIO
    TITLE "LR_black_phrase_B08_196"
    INDEX 01 04:21:57
  TRACK 197 AUDIO
    TITLE "LR_black_phrase_B08_197"
    INDEX 01 04:23:42
  TRACK 198 AUDIO
    TITLE "LR_black_phrase_B08_198"
    INDEX 01 04:24:06
  TRACK 199 AUDIO
    TITLE "LR_black_phrase_B08_199"
    INDEX 01 04:26:07
  TRACK 200 AUDIO
    TITLE "LR_black_phrase_B08_200"
    INDEX 01 04:26:36
  TRACK 201 AUDIO
    TITLE "LR_black_phrase_B08_201"
    INDEX 01 04:28:37
  TRACK 202 AUDIO
    TITLE "LR_black_phrase_B08_202"
    INDEX 01 04:29:42
  TRACK 203 AUDIO
    TITLE "LR_black_phrase_B08_203"
    INDEX 01 04:30:59
  TRACK 204 AUDIO
    TITLE "LR_black_phrase_B08_204"
    INDEX 01 04:31:22
  TRACK 205 AUDIO
    TITLE "LR_black_phrase_B08_205"
    INDEX 01 04:34:38
  TRACK 206 AUDIO
    TITLE "LR_black_phrase_B08_206"
    INDEX 01 04:35:41
  TRACK 207 AUDIO
    TITLE "LR_black_phrase_B08_207"
    INDEX 01 04:37:57
  TRACK 208 AUDIO
    TITLE "LR_black_phrase_B08_208"
    INDEX 01 04:38:22
  TRACK 209 AUDIO
    TITLE "LR_black_phrase_B08_209"
    INDEX 01 04:40:32
  TRACK 210 AUDIO
    TITLE "LR_black_phrase_B08_210"
    INDEX 01 04:40:64
  TRACK 211 AUDIO
    TITLE "LR_black_phrase_B08_211"
    INDEX 01 04:43:01
  TRACK 212 AUDIO
    TITLE "LR_black_phrase_B08_212"
    INDEX 01 04:44:01
  TRACK 213 AUDIO
    TITLE "LR_black_phrase_B08_213"
    INDEX 01 04:45:33
  TRACK 214 AUDIO
    TITLE "LR_black_phrase_B08_214"
    INDEX 01 04:45:69
  TRACK 215 AUDIO
    TITLE "LR_black_phrase_B08_215"
    INDEX 01 04:47:36
  TRACK 216 AUDIO
    TITLE "LR_black_phrase_B08_216"
    INDEX 01 04:48:36
  TRACK 217 AUDIO
    TITLE "LR_black_phrase_B08_217"
    INDEX 01 04:50:43
  TRACK 218 AUDIO
    TITLE "LR_black_phrase_B08_218"
    INDEX 01 04:51:07
  TRACK 219 AUDIO
    TITLE "LR_black_phrase_B08_219"
    INDEX 01 04:53:19
  TRACK 220 AUDIO
    TITLE "LR_black_phrase_B08_220"
    INDEX 01 04:53:45
  TRACK 221 AUDIO
    TITLE "LR_black_phrase_B08_221"
    INDEX 01 04:55:55
  TRACK 222 AUDIO
    TITLE "LR_black_phrase_B08_222"
    INDEX 01 04:56:53
  TRACK 223 AUDIO
    TITLE "LR_black_phrase_B08_223"
    INDEX 01 04:57:56
  TRACK 224 AUDIO
    TITLE "LR_black_phrase_B08_224"
    INDEX 01 04:58:17
  TRACK 225 AUDIO
    TITLE "LR_black_phrase_B08_225"
    INDEX 01 04:59:39
  TRACK 226 AUDIO
    TITLE "LR_black_phrase_B08_226"
    INDEX 01 05:00:39
  TRACK 227 AUDIO
    TITLE "LR_black_phrase_B08_227"
    INDEX 01 05:02:30
  TRACK 228 AUDIO
    TITLE "LR_black_phrase_B08_228"
    INDEX 01 05:02:63
  TRACK 229 AUDIO
    TITLE "LR_black_phrase_B08_229"
    INDEX 01 05:05:36
  TRACK 230 AUDIO
    TITLE "LR_black_phrase_B08_230"
    INDEX 01 05:05:58
  TRACK 231 AUDIO
    TITLE "LR_black_phrase_B08_231"
    INDEX 01 05:08:29
  TRACK 232 AUDIO
    TITLE "LR_black_phrase_B08_232"
    INDEX 01 05:09:24
  TRACK 233 AUDIO
    TITLE "LR_black_phrase_B08_233"
    INDEX 01 05:10:30
  TRACK 234 AUDIO
    TITLE "LR_black_phrase_B08_234"
    INDEX 01 05:10:65
  TRACK 235 AUDIO
    TITLE "LR_black_phrase_B08_235"
    INDEX 01 05:13:40
  TRACK 236 AUDIO
    TITLE "LR_black_phrase_B08_236"
    INDEX 01 05:14:39
  TRACK 237 AUDIO
    TITLE "LR_black_phrase_B08_237"
    INDEX 01 05:16:75
  TRACK 238 AUDIO
    TITLE "LR_black_phrase_B08_238"
    INDEX 01 05:17:35
  TRACK 239 AUDIO
    TITLE "LR_black_phrase_B08_239"
    INDEX 01 05:19:54
  TRACK 240 AUDIO
    TITLE "LR_black_phrase_B08_240"
    INDEX 01 05:20:01
  TRACK 241 AUDIO
    TITLE "LR_black_phrase_B08_241"
    INDEX 01 05:22:15
  TRACK 242 AUDIO
    TITLE "LR_black_phrase_B08_242"
    INDEX 01 05:23:16
  TRACK 243 AUDIO
    TITLE "LR_black_phrase_B08_243"
    INDEX 01 05:24:24
  TRACK 244 AUDIO
    TITLE "LR_black_phrase_B08_244"
    INDEX 01 05:24:65
  TRACK 245 AUDIO
    TITLE "LR_black_phrase_B08_245"
    INDEX 01 05:27:10
  TRACK 246 AUDIO
    TITLE "LR_black_phrase_B08_246"
    INDEX 01 05:28:08
  TRACK 247 AUDIO
    TITLE "LR_black_phrase_B08_247"
    INDEX 01 05:30:09
  TRACK 248 AUDIO
    TITLE "LR_black_phrase_B08_248"
    INDEX 01 05:30:48
  TRACK 249 AUDIO
    TITLE "LR_black_phrase_B08_249"
    INDEX 01 05:32:33
  TRACK 250 AUDIO
    TITLE "LR_black_phrase_B08_250"
    INDEX 01 05:32:62
  TRACK 251 AUDIO
    TITLE "LR_black_phrase_B08_251"
    INDEX 01 05:34:46
  TRACK 252 AUDIO
    TITLE "LR_black_phrase_B08_252"
    INDEX 01 05:35:49
  TRACK 253 AUDIO
    TITLE "LR_black_phrase_B08_253"
    INDEX 01 05:36:60
  TRACK 254 AUDIO
    TITLE "LR_black_phrase_B08_254"
    INDEX 01 05:37:24
  TRACK 255 AUDIO
    TITLE "LR_black_phrase_B08_255"
    INDEX 01 05:39:29
  TRACK 256 AUDIO
    TITLE "LR_black_phrase_B08_256"
    INDEX 01 05:40:29
  TRACK 257 AUDIO
    TITLE "LR_black_phrase_B08_257"
    INDEX 01 05:41:57
  TRACK 258 AUDIO
    TITLE "LR_black_phrase_B08_258"
    INDEX 01 05:42:20
  TRACK 259 AUDIO
    TITLE "LR_black_phrase_B08_259"
    INDEX 01 05:43:64
  TRACK 260 AUDIO
    TITLE "LR_black_phrase_B08_260"
    INDEX 01 05:44:19
  TRACK 261 AUDIO
    TITLE "LR_black_phrase_B08_261"
    INDEX 01 05:45:63
  TRACK 262 AUDIO
    TITLE "LR_black_phrase_B08_262"
    INDEX 01 05:46:68
  TRACK 263 AUDIO
    TITLE "LR_black_phrase_B08_263"
    INDEX 01 05:48:13
  TRACK 264 AUDIO
    TITLE "LR_black_phrase_B08_264"
    INDEX 01 05:48:52
  TRACK 265 AUDIO
    TITLE "LR_black_phrase_B08_265"
    INDEX 01 05:51:46
  TRACK 266 AUDIO
    TITLE "LR_black_phrase_B08_266"
    INDEX 01 05:52:44
  TRACK 267 AUDIO
    TITLE "LR_black_phrase_B08_267"
    INDEX 01 05:54:60
  TRACK 268 AUDIO
    TITLE "LR_black_phrase_B08_268"
    INDEX 01 05:55:24
  TRACK 269 AUDIO
    TITLE "LR_black_phrase_B08_269"
    INDEX 01 05:57:31
  TRACK 270 AUDIO
    TITLE "LR_black_phrase_B08_270"
    INDEX 01 05:57:58
  TRACK 271 AUDIO
    TITLE "LR_black_phrase_B08_271"
    INDEX 01 05:59:65
  TRACK 272 AUDIO
    TITLE "LR_black_phrase_B08_272"
    INDEX 01 06:00:63
  TRACK 273 AUDIO
    TITLE "LR_black_phrase_B08_273"
    INDEX 01 06:02:05
  TRACK 274 AUDIO
    TITLE "LR_black_phrase_B08_274"
    INDEX 01 06:02:42
  TRACK 275 AUDIO
    TITLE "LR_black_phrase_B08_275"
    INDEX 01 06:06:10
  TRACK 276 AUDIO
    TITLE "LR_black_phrase_B08_276"
    INDEX 01 06:07:04
  TRACK 277 AUDIO
    TITLE "LR_black_phrase_B08_277"
    INDEX 01 06:09:11
  TRACK 278 AUDIO
    TITLE "LR_black_phrase_B08_278"
    INDEX 01 06:09:44
  TRACK 279 AUDIO
    TITLE "LR_black_phrase_B08_279"
    INDEX 01 06:11:37
  TRACK 280 AUDIO
    TITLE "LR_black_phrase_B08_280"
    INDEX 01 06:11:63
  TRACK 281 AUDIO
    TITLE "LR_black_phrase_B08_281"
    INDEX 01 06:13:57
  TRACK 282 AUDIO
    TITLE "LR_black_phrase_B08_282"
    INDEX 01 06:14:55
  TRACK 283 AUDIO
    TITLE "LR_black_phrase_B08_283"
    INDEX 01 06:16:13
  TRACK 284 AUDIO
    TITLE "LR_black_phrase_B08_284"
    INDEX 01 06:16:50
  TRACK 285 AUDIO
    TITLE "LR_black_phrase_B08_285"
    INDEX 01 06:19:33
  TRACK 286 AUDIO
    TITLE "LR_black_phrase_B08_286"
    INDEX 01 06:20:32
  TRACK 287 AUDIO
    TITLE "LR_black_phrase_B08_287"
    INDEX 01 06:22:31
  TRACK 288 AUDIO
    TITLE "LR_black_phrase_B08_288"
    INDEX 01 06:22:66
  TRACK 289 AUDIO
    TITLE "LR_black_phrase_B08_289"
    INDEX 01 06:25:16
  TRACK 290 AUDIO
    TITLE "LR_black_phrase_B08_290"
    INDEX 01 06:25:39
  TRACK 291 AUDIO
    TITLE "LR_black_phrase_B08_291"
    INDEX 01 06:27:63
  TRACK 292 AUDIO
    TITLE "LR_black_phrase_B08_292"
    INDEX 01 06:28:61
  TRACK 293 AUDIO
    TITLE "LR_black_phrase_B08_293"
    INDEX 01 06:29:68
  TRACK 294 AUDIO
    TITLE "LR_black_phrase_B08_294"
    INDEX 01 06:30:27
  TRACK 295 AUDIO
    TITLE "LR_black_phrase_B08_295"
    INDEX 01 06:32:29
  TRACK 296 AUDIO
    TITLE "LR_black_phrase_B08_296"
    INDEX 01 06:33:37
  TRACK 297 AUDIO
    TITLE "LR_black_phrase_B08_297"
    INDEX 01 06:34:73
  TRACK 298 AUDIO
    TITLE "LR_black_phrase_B08_298"
    INDEX 01 06:35:32
  TRACK 299 AUDIO
    TITLE "LR_black_phrase_B08_299"
    INDEX 01 06:37:07
  TRACK 300 AUDIO
    TITLE "LR_black_phrase_B08_300"
    INDEX 01 06:37:29
  TRACK 301 AUDIO
    TITLE "LR_black_phrase_B08_301"
    INDEX 01 06:39:04
